# xmcd CD database file
#
# Track frame offsets:
#	150
#	16307
#	39513
#	66266
#	86321
#	103450
#	125509
#	152267
#	180143
#	200626
#	221909
#	244837
#
# Disc length: 3608 seconds
#
# Revision: 0
# Processed by: cddbd v1.5.2PL0 Copyright (c) Steve Scherf et al.
# Submitted via: CDex 1.51
#
DISCID=9f0e160c
DTITLE=GARY MOORE - GARY MOORE and GREG LAKE LIVE
DYEAR=2006
DGENRE=Blues
TTITLE0=Don't Let Me Be Misunderstood
TTITLE1=Nuclear Attack
TTITLE2=Rest In Peace 
TTITLE3=Hiroshima 
TTITLE4=Kidnapped 
TTITLE5=Bad News
TTITLE6=Parisienne Walkways
TTITLE7=Fanfare For The Common Man 
TTITLE8=Lucky Man
TTITLE9=The Lie
TTITLE10=Retribution Drive
TTITLE11=The Court Of The Crimson King 
EXTD=YEAR: 2006
EXTT0=
EXTT1=
EXTT2=
EXTT3=
EXTT4=
EXTT5=
EXTT6=
EXTT7=
EXTT8=
EXTT9=
EXTT10=
EXTT11=
PLAYORDER=
